<?xml version="1.0" encoding="utf-8"?>
<svg id="master-artboard" viewBox="0 0 1400 980" version="1.1" xmlns="http://www.w3.org/2000/svg" x="0px" y="0px" style="enable-background:new 0 0 1400 980;" width="1400px" height="980px"><rect id="ee-background" x="0" y="0" width="1400" height="980" style="fill: white; fill-opacity: 1; pointer-events: none;"/><defs><style id="ee-google-fonts">@import url(https://fonts.googleapis.com/css?family=Roboto:100,100italic,300,300italic,400,400italic,500,500italic,700,700italic,900,900italic);</style></defs>























































































































<path d="M 260.79998779296875 86.19999694824219" style="fill: rgb(23, 168, 247); fill-opacity: 1; stroke: rgb(0, 0, 0); stroke-opacity: 1; stroke-width: 0; paint-order: fill;"/><path d="M134 0l13.346 13.19L134 152.775 120.66 13.19 134 0zM0 229.163l4.876-17.981L134 152.776 18.218 234 0 229.163zm268 0l-18.205 4.83L134 152.776l129.138 58.399L268 229.163zM82.595 78.928l16.324 2.987 35.08 70.86-54.43-57.73 3.026-16.117zm12.333 154.726l-5.542-15.451 44.612-65.427-23.421 75.406-15.65 5.472zm129.544-87.909l-10.781 12.464-79.693-5.433 77.85-17.676 12.624 10.645zm-180.943 0L56.153 135.1l77.85 17.676-79.692 5.434-10.782-12.465zm129.545 87.91l-15.65-5.472-23.42-75.407 44.611 65.427-5.541 15.452zm12.333-154.727l3.025 16.118-54.429 57.73 35.08-70.86 16.324-2.988z" fill="#00D2D0" transform="matrix(2.055800199508667, 0, 0, 2.055800199508667, 447.97677327698204, 287.00625088744823)"/></svg>